<svg xmlns="http://www.w3.org/2000/svg" xmlns:xlink="http://www.w3.org/1999/xlink" width="500" zoomAndPan="magnify" viewBox="0 0 375 374.999991" height="500" preserveAspectRatio="xMidYMid meet" version="1.0"><defs><filter x="0%" y="0%" width="100%" height="100%" id="3d61dfc7c1"><feColorMatrix values="0 0 0 0 1 0 0 0 0 1 0 0 0 0 1 0 0 0 1 0" color-interpolation-filters="sRGB"/></filter><g/><clipPath id="486d2d3cba"><path d="M 33.484375 7.5 L 337.234375 7.5 L 337.234375 361.253906 L 33.484375 361.253906 Z M 33.484375 7.5 " clip-rule="nonzero"/></clipPath><clipPath id="13e5af8ff7"><path d="M 185.488281 7.5 L 337.492188 95.941406 L 337.492188 272.816406 L 185.488281 361.253906 L 33.484375 272.816406 L 33.484375 95.941406 Z M 185.488281 7.5 " clip-rule="nonzero"/></clipPath><clipPath id="6430653036"><path d="M 54.785156 170 L 93 170 L 93 206 L 54.785156 206 Z M 54.785156 170 " clip-rule="nonzero"/></clipPath><clipPath id="0045656e1d"><path d="M 169 282 L 205 282 L 205 320.285156 L 169 320.285156 Z M 169 282 " clip-rule="nonzero"/></clipPath><clipPath id="5d5488b745"><path d="M 282 170 L 320.285156 170 L 320.285156 206 L 282 206 Z M 282 170 " clip-rule="nonzero"/></clipPath><mask id="7484b26d4f"><g filter="url(#3d61dfc7c1)"><rect x="-37.5" width="450" fill="#000000" y="-37.499999" height="449.999989" fill-opacity="0.56"/></g></mask><clipPath id="dce95ed97d"><path d="M 0.785156 0.984375 L 266.214844 0.984375 L 266.214844 43.292969 L 0.785156 43.292969 Z M 0.785156 0.984375 " clip-rule="nonzero"/></clipPath><clipPath id="1dbd4e806e"><rect x="0" width="267" y="0" height="44"/></clipPath></defs><g clip-path="url(#486d2d3cba)"><g clip-path="url(#13e5af8ff7)"><path stroke-linecap="butt" transform="matrix(0, -0.75, 0.75, 0, 33.485972, 361.255375)" fill="none" stroke-linejoin="miter" d="M 471.673835 202.669747 L 353.75196 405.341622 L 117.918626 405.341622 L 0.00195897 202.669747 L 117.918626 -0.00212877 L 353.75196 -0.00212877 Z M 471.673835 202.669747 " stroke="#ff5757" stroke-width="22" stroke-opacity="1" stroke-miterlimit="4"/></g></g><path fill="#ff5757" d="M 187.5 123.421875 C 152.09375 123.421875 123.316406 152.199219 123.316406 187.601562 C 123.316406 223.007812 152.09375 251.785156 187.5 251.785156 C 222.90625 251.785156 251.683594 223.007812 251.683594 187.601562 C 251.683594 152.199219 222.90625 123.421875 187.5 123.421875 Z M 187.5 243.503906 C 156.652344 243.503906 131.597656 218.453125 131.597656 187.601562 C 131.597656 156.753906 156.652344 131.703125 187.5 131.703125 C 218.347656 131.703125 243.402344 156.753906 243.402344 187.601562 C 243.402344 218.453125 218.347656 243.503906 187.5 243.503906 Z M 187.5 243.503906 " fill-opacity="1" fill-rule="nonzero"/><path fill="#ff5757" d="M 172.179688 84.703125 L 185.636719 91.949219 C 186.257812 92.363281 186.878906 92.363281 187.5 92.363281 C 188.121094 92.363281 188.949219 92.15625 189.363281 91.949219 L 202.820312 84.703125 C 204.0625 84.082031 205.097656 82.632812 205.097656 80.976562 L 205.097656 66.484375 C 205.097656 65.035156 204.269531 63.585938 202.820312 62.757812 L 189.363281 55.511719 C 188.121094 54.886719 186.671875 54.886719 185.429688 55.511719 L 171.972656 62.757812 C 170.730469 63.378906 169.695312 64.828125 169.695312 66.484375 L 169.695312 80.976562 C 169.902344 82.425781 170.730469 83.875 172.179688 84.703125 Z M 178.183594 68.96875 L 187.5 64 L 196.816406 68.96875 L 196.816406 78.492188 L 187.5 83.460938 L 178.183594 78.492188 Z M 178.183594 68.96875 " fill-opacity="1" fill-rule="nonzero"/><path fill="#ff5757" d="M 99.714844 124.664062 C 100.542969 125.492188 101.578125 125.90625 102.613281 125.90625 C 103.027344 125.90625 103.441406 125.90625 103.855469 125.699219 L 118.554688 121.347656 C 119.796875 120.933594 120.832031 119.898438 121.246094 118.65625 L 125.59375 103.957031 C 126.007812 102.507812 125.59375 100.851562 124.558594 99.816406 L 114.207031 89.671875 C 113.171875 88.636719 111.515625 88.222656 110.066406 88.636719 L 95.367188 92.984375 C 94.125 93.398438 93.089844 94.433594 92.675781 95.675781 L 88.328125 110.375 C 87.910156 111.824219 88.328125 113.480469 89.363281 114.515625 Z M 100.128906 100.230469 L 110.273438 97.125 L 117.105469 103.957031 L 114 114.101562 L 103.855469 117.207031 L 97.023438 110.375 Z M 100.128906 100.230469 " fill-opacity="1" fill-rule="nonzero"/><g clip-path="url(#6430653036)"><path fill="#ff5757" d="M 91.847656 185.738281 L 84.597656 172.28125 C 83.976562 171.039062 82.527344 170.003906 80.871094 170.003906 L 66.378906 170.003906 C 64.929688 170.003906 63.480469 170.832031 62.652344 172.28125 L 55.40625 185.738281 C 54.785156 186.980469 54.785156 188.433594 55.40625 189.675781 L 62.652344 203.132812 C 63.273438 204.375 64.722656 205.410156 66.378906 205.410156 L 80.871094 205.410156 C 82.320312 205.410156 83.769531 204.582031 84.597656 203.132812 L 91.847656 189.675781 C 92.46875 188.433594 92.46875 186.773438 91.847656 185.738281 Z M 78.386719 196.921875 L 68.863281 196.921875 L 63.894531 187.601562 L 68.863281 178.285156 L 78.386719 178.285156 L 83.355469 187.601562 Z M 78.386719 196.921875 " fill-opacity="1" fill-rule="nonzero"/></g><path fill="#ff5757" d="M 121.246094 256.757812 C 120.832031 255.515625 119.796875 254.480469 118.554688 254.0625 L 103.855469 249.714844 C 102.40625 249.300781 100.75 249.714844 99.714844 250.75 L 89.363281 261.105469 C 88.328125 262.140625 87.910156 263.796875 88.328125 265.246094 L 92.675781 279.945312 C 93.089844 281.1875 94.125 282.222656 95.367188 282.636719 L 110.066406 286.984375 C 110.480469 287.191406 110.894531 287.191406 111.308594 287.191406 C 112.34375 287.191406 113.378906 286.777344 114.207031 285.949219 L 124.558594 275.597656 C 125.59375 274.5625 126.007812 272.90625 125.59375 271.457031 Z M 110.273438 278.082031 L 100.128906 274.976562 L 97.023438 264.832031 L 103.855469 258 L 114 261.105469 L 117.105469 271.25 Z M 110.273438 278.082031 " fill-opacity="1" fill-rule="nonzero"/><g clip-path="url(#0045656e1d)"><path fill="#ff5757" d="M 202.820312 290.503906 L 189.363281 283.257812 C 188.121094 282.636719 186.671875 282.636719 185.429688 283.257812 L 171.972656 290.503906 C 170.730469 291.125 169.695312 292.574219 169.695312 294.230469 L 169.695312 308.722656 C 169.695312 310.171875 170.523438 311.621094 171.972656 312.449219 L 185.429688 319.695312 C 186.050781 320.109375 186.671875 320.109375 187.292969 320.109375 C 187.914062 320.109375 188.742188 319.902344 189.15625 319.695312 L 202.613281 312.449219 C 203.855469 311.828125 204.890625 310.378906 204.890625 308.722656 L 204.890625 294.230469 C 205.097656 292.78125 204.269531 291.332031 202.820312 290.503906 Z M 196.816406 306.238281 L 187.5 311.207031 L 178.183594 306.238281 L 178.183594 296.714844 L 187.5 291.746094 L 196.816406 296.714844 Z M 196.816406 306.238281 " fill-opacity="1" fill-rule="nonzero"/></g><path fill="#ff5757" d="M 275.285156 250.542969 C 274.25 249.507812 272.59375 249.09375 271.144531 249.507812 L 256.652344 253.855469 C 255.410156 254.269531 254.375 255.308594 253.960938 256.550781 L 249.613281 271.25 C 249.199219 272.699219 249.613281 274.355469 250.648438 275.390625 L 261 285.742188 C 261.828125 286.570312 262.863281 286.984375 263.898438 286.984375 C 264.3125 286.984375 264.726562 286.984375 265.140625 286.777344 L 279.839844 282.429688 C 281.082031 282.015625 282.117188 280.980469 282.53125 279.738281 L 286.878906 265.039062 C 287.296875 263.589844 286.878906 261.933594 285.84375 260.898438 Z M 274.871094 274.976562 L 264.726562 278.082031 L 257.894531 271.25 L 261 261.105469 L 271.144531 258 L 277.976562 264.832031 Z M 274.871094 274.976562 " fill-opacity="1" fill-rule="nonzero"/><g clip-path="url(#5d5488b745)"><path fill="#ff5757" d="M 319.59375 185.738281 L 312.347656 172.28125 C 311.726562 171.039062 310.277344 170.003906 308.621094 170.003906 L 294.128906 170.003906 C 292.679688 170.003906 291.230469 170.832031 290.402344 172.28125 L 283.152344 185.738281 C 282.53125 186.980469 282.53125 188.433594 283.152344 189.675781 L 290.402344 203.132812 C 291.023438 204.375 292.472656 205.410156 294.128906 205.410156 L 308.621094 205.410156 C 310.070312 205.410156 311.519531 204.582031 312.347656 203.132812 L 319.59375 189.675781 C 320.214844 188.433594 320.214844 186.773438 319.59375 185.738281 Z M 306.136719 196.921875 L 296.613281 196.921875 L 291.644531 187.601562 L 296.613281 178.285156 L 306.136719 178.285156 L 311.105469 187.601562 Z M 306.136719 196.921875 " fill-opacity="1" fill-rule="nonzero"/></g><path fill="#ff5757" d="M 253.753906 118.449219 C 254.167969 119.691406 255.203125 120.726562 256.445312 121.140625 L 271.144531 125.492188 C 271.558594 125.699219 271.972656 125.699219 272.386719 125.699219 C 273.421875 125.699219 274.457031 125.285156 275.285156 124.457031 L 285.636719 114.308594 C 286.671875 113.273438 287.085938 111.617188 286.671875 110.167969 L 282.324219 95.46875 C 281.910156 94.226562 280.875 93.191406 279.632812 92.777344 L 264.933594 88.429688 C 263.484375 88.015625 261.828125 88.429688 260.792969 89.464844 L 250.441406 99.609375 C 249.40625 100.644531 248.992188 102.300781 249.40625 103.75 Z M 264.726562 97.125 L 274.871094 100.230469 L 277.976562 110.375 L 271.144531 117.207031 L 261 114.101562 L 257.894531 103.957031 Z M 264.726562 97.125 " fill-opacity="1" fill-rule="nonzero"/><path fill="#ff5757" d="M 187.5 146.195312 C 171.558594 146.195312 155.410156 151.371094 154.375 161.308594 C 154.375 161.515625 154.375 161.929688 154.375 162.136719 L 154.375 213.277344 C 154.375 223.628906 170.9375 229.21875 187.5 229.21875 C 204.0625 229.21875 220.625 223.835938 220.625 213.277344 L 220.625 162.136719 C 220.625 161.929688 220.625 161.515625 220.625 161.308594 C 219.589844 151.371094 203.441406 146.195312 187.5 146.195312 Z M 187.5 154.476562 C 203.648438 154.476562 212.34375 159.859375 212.34375 162.136719 C 212.34375 164.414062 203.648438 169.796875 187.5 169.796875 C 171.351562 169.796875 162.65625 164.414062 162.65625 162.136719 C 162.65625 159.859375 171.351562 154.476562 187.5 154.476562 Z M 187.5 220.730469 C 171.351562 220.730469 162.65625 215.347656 162.65625 213.070312 L 162.65625 206.859375 C 169.074219 210.171875 178.390625 211.828125 187.5 211.828125 C 196.609375 211.828125 205.925781 210.171875 212.34375 206.859375 L 212.34375 213.070312 C 212.34375 215.347656 203.648438 220.730469 187.5 220.730469 Z M 187.5 203.753906 C 171.351562 203.753906 162.65625 198.371094 162.65625 196.09375 L 162.65625 189.882812 C 169.074219 193.195312 178.390625 194.851562 187.5 194.851562 C 196.609375 194.851562 205.925781 193.195312 212.34375 189.882812 L 212.34375 196.09375 C 212.34375 198.371094 203.648438 203.753906 187.5 203.753906 Z M 187.5 186.566406 C 171.351562 186.566406 162.65625 181.183594 162.65625 178.90625 L 162.65625 172.695312 C 169.074219 176.007812 178.390625 177.664062 187.5 177.664062 C 196.609375 177.664062 205.925781 176.007812 212.34375 172.695312 L 212.34375 178.90625 C 212.34375 181.183594 203.648438 186.566406 187.5 186.566406 Z M 187.5 186.566406 " fill-opacity="1" fill-rule="nonzero"/><path fill="#ff5757" d="M 241.539062 139.363281 L 252.511719 128.390625 C 250.027344 127.148438 247.957031 125.078125 246.714844 122.59375 L 235.742188 133.566406 C 237.8125 135.429688 239.675781 137.292969 241.539062 139.363281 Z M 241.539062 139.363281 " fill-opacity="1" fill-rule="nonzero"/><path fill="#ff5757" d="M 133.460938 235.84375 L 122.488281 246.816406 C 124.972656 248.058594 127.042969 250.128906 128.285156 252.613281 L 139.257812 241.640625 C 137.1875 239.777344 135.324219 237.914062 133.460938 235.84375 Z M 133.460938 235.84375 " fill-opacity="1" fill-rule="nonzero"/><path fill="#ff5757" d="M 183.359375 99.816406 L 183.359375 115.136719 C 184.808594 115.136719 186.050781 114.929688 187.5 114.929688 C 188.949219 114.929688 190.191406 114.929688 191.640625 115.136719 L 191.640625 99.816406 C 190.398438 100.230469 188.949219 100.644531 187.5 100.644531 C 186.050781 100.644531 184.601562 100.4375 183.359375 99.816406 Z M 183.359375 99.816406 " fill-opacity="1" fill-rule="nonzero"/><path fill="#ff5757" d="M 191.640625 275.390625 L 191.640625 260.070312 C 190.191406 260.070312 188.949219 260.277344 187.5 260.277344 C 186.050781 260.277344 184.808594 260.277344 183.359375 260.070312 L 183.359375 275.390625 C 186.050781 274.355469 188.949219 274.355469 191.640625 275.390625 Z M 191.640625 275.390625 " fill-opacity="1" fill-rule="nonzero"/><path fill="#ff5757" d="M 275.285156 191.746094 C 274.25 189.054688 274.25 186.152344 275.285156 183.460938 L 259.964844 183.460938 C 259.964844 184.910156 260.171875 186.152344 260.171875 187.601562 C 260.171875 189.054688 260.171875 190.296875 259.964844 191.746094 Z M 275.285156 191.746094 " fill-opacity="1" fill-rule="nonzero"/><path fill="#ff5757" d="M 99.714844 183.460938 C 100.75 186.152344 100.75 189.054688 99.714844 191.746094 L 115.035156 191.746094 C 115.035156 190.296875 114.828125 189.054688 114.828125 187.601562 C 114.828125 186.152344 114.828125 184.910156 115.035156 183.460938 Z M 99.714844 183.460938 " fill-opacity="1" fill-rule="nonzero"/><path fill="#ff5757" d="M 133.460938 139.363281 C 135.324219 137.292969 137.1875 135.429688 139.257812 133.566406 L 128.285156 122.59375 C 127.042969 125.078125 124.972656 127.148438 122.488281 128.390625 Z M 133.460938 139.363281 " fill-opacity="1" fill-rule="nonzero"/><path fill="#ff5757" d="M 241.539062 235.84375 C 239.675781 237.914062 237.8125 239.777344 235.742188 241.640625 L 246.714844 252.613281 C 247.957031 250.128906 250.027344 248.058594 252.511719 246.816406 Z M 241.539062 235.84375 " fill-opacity="1" fill-rule="nonzero"/><g mask="url(#7484b26d4f)"><g transform="matrix(1, 0, 0, 1, 54, 222)"><g clip-path="url(#1dbd4e806e)"><g clip-path="url(#dce95ed97d)"><path fill="#ffffff" d="M 0.785156 0.984375 L 266.199219 0.984375 L 266.199219 43.292969 L 0.785156 43.292969 Z M 0.785156 0.984375 " fill-opacity="1" fill-rule="nonzero"/></g></g></g></g><g fill="#000000" fill-opacity="1"><g transform="translate(64.601331, 254.934403)"><g><path d="M 10.796875 3.375 L 3.265625 3.375 L 3.265625 -24.90625 L 10.796875 -24.90625 L 10.796875 -21.515625 L 7.703125 -21.515625 L 7.703125 -0.03125 L 10.796875 -0.03125 Z M 10.796875 3.375 "/></g></g></g><g fill="#000000" fill-opacity="1"><g transform="translate(88.124531, 254.934403)"><g><path d="M 18 -23.5625 L 18 -19.65625 L 7.71875 -19.65625 L 7.71875 -13.421875 L 17.046875 -13.421875 L 17.046875 -9.578125 L 7.71875 -9.578125 L 7.71875 0 L 3.0625 0 L 3.0625 -23.5625 Z M 18 -23.5625 "/></g></g></g><g fill="#000000" fill-opacity="1"><g transform="translate(118.94445, 254.934403)"><g><path d="M 3.0625 0 L 3.0625 -23.5625 L 12.515625 -23.5625 C 14.953125 -23.5625 16.789062 -23 18.03125 -21.875 C 19.28125 -20.75 19.90625 -19.195312 19.90625 -17.21875 C 19.90625 -15.789062 19.539062 -14.617188 18.8125 -13.703125 C 18.082031 -12.796875 17 -12.101562 15.5625 -11.625 L 15.5625 -11.28125 C 16.300781 -10.957031 16.898438 -10.476562 17.359375 -9.84375 C 17.816406 -9.207031 18.25 -8.269531 18.65625 -7.03125 L 21.015625 0 L 16.21875 0 L 13.921875 -7.046875 C 13.679688 -7.753906 13.414062 -8.300781 13.125 -8.6875 C 12.832031 -9.082031 12.457031 -9.367188 12 -9.546875 C 11.539062 -9.722656 10.945312 -9.8125 10.21875 -9.8125 L 7.71875 -9.8125 L 7.71875 0 Z M 11.953125 -13.5 C 14.210938 -13.5 15.34375 -14.550781 15.34375 -16.65625 C 15.34375 -18.800781 14.210938 -19.875 11.953125 -19.875 L 7.71875 -19.875 L 7.71875 -13.5 Z M 11.953125 -13.5 "/></g></g></g><g fill="#000000" fill-opacity="1"><g transform="translate(152.744269, 254.934403)"><g><path d="M 22.609375 0 L 17.703125 0 L 15.9375 -5.4375 L 6.90625 -5.4375 L 5.140625 0 L 0.359375 0 L 8.484375 -23.5625 L 14.46875 -23.5625 Z M 11.203125 -18.640625 L 8.171875 -9.34375 L 14.640625 -9.34375 L 11.609375 -18.640625 Z M 11.203125 -18.640625 "/></g></g></g><g fill="#000000" fill-opacity="1"><g transform="translate(187.478333, 254.934403)"><g><path d="M 7.328125 0 L 3.0625 0 L 3.0625 -23.5625 L 9.15625 -23.5625 L 15.109375 -6.234375 L 15.453125 -6.234375 L 21.375 -23.5625 L 27.328125 -23.5625 L 27.328125 0 L 22.90625 0 L 22.90625 -15.5625 L 22.515625 -15.625 L 17.0625 0 L 13.1875 0 L 7.734375 -15.625 L 7.328125 -15.5625 Z M 7.328125 0 "/></g></g></g><g fill="#000000" fill-opacity="1"><g transform="translate(229.654088, 254.934403)"><g><path d="M 7.71875 -10.34375 L 7.71875 -3.90625 L 18.96875 -3.90625 L 18.96875 0 L 3.0625 0 L 3.0625 -23.5625 L 18.703125 -23.5625 L 18.703125 -19.65625 L 7.71875 -19.65625 L 7.71875 -14.140625 L 17.328125 -14.140625 L 17.328125 -10.34375 Z M 7.71875 -10.34375 "/></g></g></g><g fill="#000000" fill-opacity="1"><g transform="translate(261.682082, 254.934403)"><g><path d="M 11.53125 -23.5625 C 15.363281 -23.5625 18.285156 -22.570312 20.296875 -20.59375 C 22.304688 -18.613281 23.3125 -15.675781 23.3125 -11.78125 C 23.3125 -7.894531 22.304688 -4.957031 20.296875 -2.96875 C 18.285156 -0.988281 15.363281 0 11.53125 0 L 3.0625 0 L 3.0625 -23.5625 Z M 11.265625 -3.921875 C 13.691406 -3.921875 15.503906 -4.539062 16.703125 -5.78125 C 17.910156 -7.019531 18.515625 -9.019531 18.515625 -11.78125 C 18.515625 -14.539062 17.910156 -16.539062 16.703125 -17.78125 C 15.503906 -19.019531 13.691406 -19.640625 11.265625 -19.640625 L 7.71875 -19.640625 L 7.71875 -3.921875 Z M 11.265625 -3.921875 "/></g></g></g><g fill="#000000" fill-opacity="1"><g transform="translate(298.638989, 254.934403)"><g><path d="M 8.46875 3.375 L 0.953125 3.375 L 0.953125 -0.03125 L 4.046875 -0.03125 L 4.046875 -21.515625 L 0.953125 -21.515625 L 0.953125 -24.90625 L 8.46875 -24.90625 Z M 8.46875 3.375 "/></g></g></g></svg>